# xmcd
#
# Track frame offsets: 
#        150
#        12752
#        24177
#        36165
#        49520
#        62952
#        75927
#        88405
#        100930
#        115927
#        127955
#        141107
#        153407
#        166480
#        179587
#        192930
#        205560
#        218537
#        231995
#        243210
#        256837
#        270352
#        282820
#        295945
#        308562
#        321685
#        335080
#        347032
#
# Disc length: 4790 seconds
#
# Revision: 1
# Processed by: cddbd v1.5.2PL0 Copyright (c) Steve Scherf et al.
# Submitted via: ExactAudioCopyFreeDBPlugin 1.0
#
DISCID=8b12b41c
DTITLE=Various Artist - Blowing the Fuse:  459 R&B Classics, 1945-196
DTITLE=0 [Bear Family]
DYEAR=1947
DGENRE=Rhythm and Blues
TTITLE0=Louis Jordan - Let the Good Times Roll
TTITLE1=Albert Ammons - Swanee River Boogie
TTITLE2=T-Bone Walker - Bobby Sox Blues
TTITLE3=Jack McVea - Open the Door Richard!
TTITLE4=Amos Milburn - Down the Road Apiece
TTITLE5=Savannah Churchill - I Want to Be Loved (But Only By You)
TTITLE6=Eddie Vinson - Old Maid Boogie
TTITLE7=Sonny Boy Williamson - Shake That Boogie
TTITLE8=Lionel Hampton - Blow Top Blues
TTITLE9=Wynonie Harris - Time to Change Your Town
TTITLE10=Joe Turner - Sally Zu-Zaz
TTITLE11=Hadda Brooks Trio - That's My Desire
TTITLE12=The Big Three Trio - Signifying Monkey (ft Willie Dixon)
TTITLE13=Arthur Crudup - That's All Right
TTITLE14=Johnny Moore's Three Blazers - New Orleans Blues
TTITLE15=Roy Milton - True Blues
TTITLE16=The Five Blazes - Chicago Boogie
TTITLE17=Bill Johnson - Don't You Think I Ought to Know
TTITLE18=Walter Brown - W.B. Blues
TTITLE19=Nellie Lutcher - He's a Real Gone Guy
TTITLE20=The Ravens - Ol' Man River
TTITLE21=Louis Jordan - Boogie Woogie Blue Plate
TTITLE22=Julia Lee - (Opportunity Knocks But Once) Snatch and Grab It
TTITLE23=Clarence Samuels - Lollypop Mama
TTITLE24=Annie Laurie - Since I Fell for You
TTITLE25=Gene Phillips - Big Legs
TTITLE26=Clarence Brown - Guitar in My Hand
TTITLE27=Paul Williams Sextet - Hasting Street Bounce
EXTD=
EXTT0=
EXTT1=
EXTT2=
EXTT3=
EXTT4=
EXTT5=
EXTT6=
EXTT7=
EXTT8=
EXTT9=
EXTT10=
EXTT11=
EXTT12=
EXTT13=
EXTT14=
EXTT15=
EXTT16=
EXTT17=
EXTT18=
EXTT19=
EXTT20=
EXTT21=
EXTT22=
EXTT23=
EXTT24=
EXTT25=
EXTT26=
EXTT27=
PLAYORDER=
